<mxfile host="app.diagrams.net" modified="2024-09-23T03:00:43.988Z" agent="Mozilla/5.0 (Windows NT 10.0; Win64; x64) AppleWebKit/537.36 (KHTML, like Gecko) Chrome/128.0.0.0 Safari/537.36 Edg/128.0.0.0" version="24.6.4" etag="akqWVPgVEd2I-xg9KE74" type="github">
  <diagram name="第 1 页" id="wLrtt9gESatozJcldq1V">
    <mxGraphModel>
      <root>
        <mxCell id="0" />
        <mxCell id="1" parent="0" />
      </root>
    </mxGraphModel>
  </diagram>
</mxfile>
